<svg width="800px" height="800px" viewBox="0 0 512 512" id="Layer_1" version="1.1" xml:space="preserve" xmlns="http://www.w3.org/2000/svg" xmlns:xlink="http://www.w3.org/1999/xlink">

<style type="text/css">
	.st0{fill:#D8D8D8;}
	.st1{fill:#49A8FF;}
	.st2{fill:#FDCEB6;}
	.st3{fill:#FFFFFF;}
	.st4{fill:none;stroke:#34374F;stroke-width:12;stroke-linecap:round;stroke-linejoin:round;stroke-miterlimit:10;}
	.st5{fill:#99DB3B;}
	.st6{fill:#474C68;}
	.st7{fill:none;stroke:#34374F;stroke-width:11;stroke-linecap:round;stroke-linejoin:round;stroke-miterlimit:10;}
	.st8{fill:#34374F;}
	.st9{fill:none;stroke:#34374F;stroke-width:13;stroke-linecap:round;stroke-linejoin:round;stroke-miterlimit:10;}
	.st10{fill:none;stroke:#FFFFFF;stroke-width:12;stroke-linecap:round;stroke-linejoin:round;stroke-miterlimit:10;}
	.st11{fill:none;stroke:#34374F;stroke-width:12;stroke-linecap:round;stroke-linejoin:round;}
	.st12{fill:none;stroke:#34374F;stroke-width:12;stroke-linecap:round;stroke-linejoin:round;stroke-dasharray:27.2333,27.2333;}
</style>

<g>

<path class="st0" d="M373.69,332.29l-7.41-40.34c-1.63-8.88-8.2-15.81-16.58-17.49l-68.73-13.77c-4.58-0.92-8.03-4.95-8.45-9.87   l-6.67-93.15c-0.96-10.64-9.38-18.76-19.46-18.76h-4.89c-6.22,0-11.27,5.31-11.32,11.9l-1.06,147.48   c-0.02,2.69-3.05,4.08-4.91,2.25l-48.81-47.89c-6-5.08-14.62-4.64-20.13,1.02l-2.28,2.34c-3.65,3.75-4.37,9.67-1.73,14.28   l28.66,49.98c10.88,18.97,24.95,35.65,41.51,49.23c5.19,4.26,8.24,10.83,8.24,17.79v36.89l1.26,0.47h-12.46v47.97h138.29v-47.97   h-8.76l1-0.33l1.51-18.2c1.3-15.68,6.22-30.78,14.31-43.97l6.54-10.66C374.06,345.52,374.88,338.79,373.69,332.29z"></path>

<path class="st0" d="M423.16,330.5H107.45c-13.54,0-24.52-10.98-24.52-24.52V80.45c0-13.54,10.98-24.52,24.52-24.52h315.72   c13.54,0,24.52,10.98,24.52,24.52v225.54C447.69,319.53,436.71,330.5,423.16,330.5z"></path>

<path class="st3" d="M404.55,313.96H88.84c-13.54,0-24.52-10.98-24.52-24.52V63.9c0-13.54,10.98-24.52,24.52-24.52h315.72   c13.54,0,24.52,10.98,24.52,24.52v225.54C429.08,302.98,418.1,313.96,404.55,313.96z"></path>

<path class="st0" d="M290.77,162.63l16.81-9.1c2-1.08,2-3.73,0-4.81l-97.5-52.81c-2.03-1.1-4.59,0.24-4.59,2.41v105.62   c0,2.16,2.56,3.5,4.59,2.41L290.77,162.63"></path>

<g>

<rect class="st5" height="39.83" width="52.89" x="157.15" y="219.83"></rect>

<rect class="st5" height="39.83" width="33.67" x="89.2" y="219.83"></rect>

<rect class="st5" height="39.83" width="36.75" x="301.38" y="219.83"></rect>

<rect class="st5" height="39.83" width="33.08" x="369.36" y="219.83"></rect>

<polyline class="st4" points="90.8,218.82 402.12,218.82 402.12,259.2 90.8,259.2   "></polyline>

<line class="st4" x1="123.68" x2="123.68" y1="219.83" y2="258.19"></line>

<line class="st4" x1="159.01" x2="159.01" y1="219.83" y2="258.19"></line>

<line class="st4" x1="229.67" x2="229.67" y1="219.83" y2="258.19"></line>

<line class="st4" x1="300.34" x2="300.34" y1="219.83" y2="258.19"></line>

<line class="st4" x1="335.67" x2="335.67" y1="219.83" y2="258.19"></line>

<line class="st4" x1="371" x2="371" y1="219.83" y2="258.19"></line>

</g>

<path class="st1" d="M403.72,39.38H89.67c-14,0-25.35,11.35-25.35,25.35v223.87c0,14,11.35,25.35,25.35,25.35h314.06   c14,0,25.35-11.35,25.35-25.35V64.74C429.08,50.73,417.73,39.38,403.72,39.38z M402.74,285.19H90.65V68.15h312.09V285.19z"></path>

<g>

<path class="st3" d="M78.31,288.61V64.74c0-14,8.11-25.35,18.11-25.35H82.43c-10,0-18.11,11.35-18.11,25.35v223.87    c0,14,8.11,25.35,18.11,25.35h13.99C86.42,313.96,78.31,302.61,78.31,288.61z"></path>

</g>

<path class="st4" d="M404.55,313.96H88.84c-13.54,0-24.52-10.98-24.52-24.52V63.9c0-13.54,10.98-24.52,24.52-24.52h315.72   c13.54,0,24.52,10.98,24.52,24.52v225.54C429.08,302.98,418.1,313.96,404.55,313.96z"></path>

<rect class="st4" height="312.09" transform="matrix(-1.836970e-16 1 -1 -1.836970e-16 423.3679 -70.0224)" width="217.04" x="138.17" y="20.63"></rect>

<path class="st1" d="M275.37,154.96l16.81-9.1c2-1.08,2-3.73,0-4.81l-97.5-52.81c-2.03-1.1-4.59,0.24-4.59,2.41v105.62   c0,2.16,2.56,3.5,4.59,2.41L275.37,154.96"></path>

<path class="st4" d="M275.37,154.96l16.81-9.1c2-1.08,2-3.73,0-4.81l-97.5-52.81c-2.03-1.1-4.59,0.24-4.59,2.41v105.62   c0,2.16,2.56,3.5,4.59,2.41L275.37,154.96"></path>

<g>

<rect class="st3" height="138.29" transform="matrix(6.123234e-17 -1 1 6.123234e-17 -173.4437 711.4207)" width="47.97" x="245.01" y="373.29"></rect>

<rect class="st1" height="138.29" transform="matrix(6.123234e-17 -1 1 6.123234e-17 -190.1573 728.1342)" width="14.54" x="261.72" y="390"></rect>

<rect class="st4" height="138.29" transform="matrix(6.123234e-17 -1 1 6.123234e-17 -173.4437 711.4207)" width="47.97" x="245.01" y="373.29"></rect>

<path class="st3" d="M331.08,268.26l-68.73-13.77c-4.58-0.92-8.03-4.95-8.45-9.87l-6.67-93.15c-0.96-10.64-9.38-18.76-19.46-18.76    h-4.89c-6.22,0-11.27,5.31-11.32,11.9l-1.06,147.48c-0.02,2.69-3.05,4.08-4.91,2.25l-48.81-47.89c-6-5.07-14.62-4.64-20.13,1.02    l-2.28,2.34c-3.65,3.75-4.37,9.67-1.73,14.28l28.66,49.98c10.88,18.97,24.95,35.65,41.51,49.23l0,0    c5.19,4.26,8.24,10.83,8.24,17.79v36.89l119.32,0.14l1.51-18.2c1.3-15.68,6.22-30.78,14.31-43.97l6.54-10.66    c2.71-5.97,3.53-12.7,2.34-19.2l-7.41-40.34C346.03,276.87,339.46,269.94,331.08,268.26z"></path>

<path class="st2" d="M331.08,268.26l-68.73-13.77c-4.58-0.92-8.03-4.95-8.45-9.87l-6.67-93.15c-0.96-10.64-9.38-18.76-19.46-18.76    h-4.89c-6.22,0-11.27,5.31-11.32,11.9l-1.06,147.48c-0.02,2.69-3.05,4.08-4.91,2.25l-48.81-47.89c-6-5.07-14.62-4.64-20.13,1.02    l-2.28,2.34c-3.65,3.75-4.37,9.67-1.73,14.28l28.66,49.98c10.88,18.97,24.95,35.65,41.51,49.23l0,0    c5.19,4.26,8.24,10.83,8.24,17.79v36.89l119.32,0.14l1.51-18.2c1.3-15.68,6.22-30.78,14.31-43.97l6.54-10.66    c2.71-5.97,3.53-12.7,2.34-19.2l-7.41-40.34C346.03,276.87,339.46,269.94,331.08,268.26z"></path>

<g>

<path class="st3" d="M222.88,132.7c-6.22,0-11.27,5.88-11.32,13.18l-3.45,52.75c2.12,0.44,3.91,2.06,3.84,4.87     c-0.36,13.32-1.71,26.41-2.65,39.67c-0.94,13.43,0.42,26.89-0.62,40.32c-0.29,3.68-3.62,5.32-6.43,4.91l-0.7,10.76l7.18,6.53     c5.22,4.57,15.08-2.72,15.1-5.7l1.06-163.27c0.01-1.4,0.21-2.75,0.56-4.02H222.88z"></path>

<path class="st3" d="M224.38,416.37v-43.56c0-6.96-3.04-13.53-8.24-17.79c-16.56-13.58-33.1-29.06-43.98-48.02l-28.73-48.97     c-2.33-4.06,0.5-11.38,3.11-15.09c-3.6,0.18-7.14,1.7-9.9,4.54l-2.28,2.34c-3.65,3.75-4.37,9.67-1.73,14.28l28.66,49.98     c10.88,18.97,24.95,35.65,41.51,49.23c5.19,4.26,8.24,10.83,8.24,17.79v36.89"></path>

</g>

<path class="st4" d="M331.08,268.26l-68.73-13.77c-4.58-0.92-8.03-4.95-8.45-9.87l-6.67-93.15c-0.96-10.64-9.38-18.76-19.46-18.76    h-4.89c-6.22,0-11.27,5.31-11.32,11.9l-1.06,147.48c-0.02,2.69-3.05,4.08-4.91,2.25l-48.81-47.89c-6-5.07-14.62-4.64-20.13,1.02    l-2.28,2.34c-3.65,3.75-4.37,9.67-1.73,14.28l28.66,49.98c10.88,18.97,24.95,35.65,41.51,49.23l0,0    c5.19,4.26,8.24,10.83,8.24,17.79v36.89l119.32,0.14l1.51-18.2c1.3-15.68,6.22-30.78,14.31-43.97l6.54-10.66    c2.71-5.97,3.53-12.7,2.34-19.2l-7.41-40.34C346.03,276.87,339.46,269.94,331.08,268.26z"></path>

</g>

</g>

</svg>